<svg width="47" height="54" viewBox="0 0 47 54" fill="none" xmlns="http://www.w3.org/2000/svg">
<path fill-rule="evenodd" clip-rule="evenodd" d="M23.5798 0C10.6011 -0.043196 0.0441082 10.2285 1.32953e-05 22.9425L0 23.0207C0 23.0442 0.000411823 23.0676 0.00123381 23.0911C0.211677 29.0917 2.32556 34.8788 6.04882 39.6479C10.0556 44.8874 14.9662 49.4002 20.5588 52.983C22.2726 54.3379 24.7228 54.3388 26.4376 52.9857C30.1765 50.61 33.6254 47.8225 36.7169 44.6777L36.7284 44.6657C42.1604 39.0503 46.84 31.6242 46.9995 23.3683L46.9999 23.3295V23.0958C47.0422 10.3833 36.5574 0.0431924 23.5798 0ZM23.501 14.583C18.5566 14.583 14.5484 18.5095 14.5484 23.3531C14.5484 28.1967 18.5566 32.1232 23.501 32.1232C28.4454 32.1232 32.4537 28.1967 32.4537 23.3531C32.4537 18.5095 28.4454 14.583 23.501 14.583Z" fill="#FF0000"/>
</svg>
