<svg width="23" height="32" fill="none" xmlns="http://www.w3.org/2000/svg"><path fill-rule="evenodd" clip-rule="evenodd" d="M20.579 1.23h-1.21V0h-1.211v1.23h-3.632V0h-1.21v1.23H9.684V0h-1.21v1.23H4.842V0h-1.21v1.23H2.42C1.089 1.23 0 2.339 0 3.693v25.846C0 30.892 1.09 32 2.421 32H20.58c1.33 0 2.42-1.108 2.42-2.462V3.692c0-1.354-1.09-2.461-2.421-2.461zm1.21 28.308c0 .739-.484 1.231-1.21 1.231H2.421c-.605 0-1.21-.492-1.21-1.23V3.691c0-.738.484-1.23 1.21-1.23h1.21v1.23h1.211v-1.23h3.632v1.23h1.21v-1.23h3.632v1.23h1.21v-1.23h3.632v1.23h1.21v-1.23h1.211c.605 0 1.21.492 1.21 1.23v25.846zm-14.526-16H3.632V9.847h3.631v3.693zm-1.21-2.461h-1.21v1.23h1.21v-1.23zm-2.421 8.615h3.631V16H3.632v3.692zm1.21-2.461h1.21v1.23h-1.21v-1.23zm-1.21 8.615h3.631v-3.692H3.632v3.692zm1.21-2.461h1.21v1.23h-1.21v-1.23zm4.842-11.077v-1.231h9.685v1.23H9.684zm0 4.923v1.23h9.685v-1.23H9.684zm0 7.384v-1.23h9.685v1.23H9.684z" fill="#DB2C1D"/></svg>