<svg width="161" height="17" viewBox="0 0 161 17" fill="none" xmlns="http://www.w3.org/2000/svg">
<path d="M113.448 3.15918V8.82812H112.631V2.24512H113.378L113.448 3.15918ZM116.652 4.58301V4.67529C116.652 5.021 116.611 5.3418 116.529 5.6377C116.447 5.93066 116.327 6.18555 116.168 6.40234C116.013 6.61914 115.821 6.7876 115.593 6.90771C115.364 7.02783 115.102 7.08789 114.806 7.08789C114.504 7.08789 114.238 7.03809 114.006 6.93848C113.775 6.83887 113.579 6.69385 113.417 6.50342C113.256 6.31299 113.127 6.08447 113.031 5.81787C112.937 5.55127 112.873 5.25098 112.837 4.91699V4.4248C112.873 4.07324 112.938 3.7583 113.035 3.47998C113.132 3.20166 113.259 2.96436 113.417 2.76807C113.579 2.56885 113.773 2.41797 114.002 2.31543C114.23 2.20996 114.494 2.15723 114.793 2.15723C115.092 2.15723 115.357 2.21582 115.588 2.33301C115.82 2.44727 116.015 2.61133 116.173 2.8252C116.331 3.03906 116.45 3.29541 116.529 3.59424C116.611 3.89014 116.652 4.21973 116.652 4.58301ZM115.834 4.67529V4.58301C115.834 4.3457 115.81 4.12305 115.76 3.91504C115.71 3.7041 115.632 3.51953 115.527 3.36133C115.424 3.2002 115.292 3.07422 115.131 2.9834C114.97 2.88965 114.778 2.84277 114.556 2.84277C114.351 2.84277 114.172 2.87793 114.02 2.94824C113.87 3.01855 113.743 3.11377 113.637 3.23389C113.532 3.35107 113.445 3.48584 113.378 3.63818C113.313 3.7876 113.265 3.94287 113.233 4.104V5.24219C113.292 5.44727 113.374 5.64062 113.479 5.82227C113.584 6.00098 113.725 6.146 113.901 6.25732C114.077 6.36572 114.298 6.41992 114.564 6.41992C114.784 6.41992 114.973 6.37451 115.131 6.28369C115.292 6.18994 115.424 6.0625 115.527 5.90137C115.632 5.74023 115.71 5.55566 115.76 5.34766C115.81 5.13672 115.834 4.9126 115.834 4.67529ZM120.493 6.18701V3.73926C120.493 3.55176 120.455 3.38916 120.378 3.25146C120.305 3.11084 120.194 3.00244 120.044 2.92627C119.895 2.8501 119.71 2.81201 119.491 2.81201C119.286 2.81201 119.105 2.84717 118.95 2.91748C118.798 2.98779 118.678 3.08008 118.59 3.19434C118.505 3.30859 118.462 3.43164 118.462 3.56348H117.649C117.649 3.39355 117.693 3.2251 117.781 3.05811C117.869 2.89111 117.995 2.74023 118.159 2.60547C118.326 2.46777 118.525 2.35938 118.757 2.28027C118.991 2.19824 119.252 2.15723 119.539 2.15723C119.885 2.15723 120.189 2.21582 120.453 2.33301C120.72 2.4502 120.928 2.62744 121.077 2.86475C121.229 3.09912 121.306 3.39355 121.306 3.74805V5.96289C121.306 6.12109 121.319 6.28955 121.345 6.46826C121.375 6.64697 121.417 6.80078 121.473 6.92969V7H120.625C120.583 6.90625 120.551 6.78174 120.528 6.62646C120.504 6.46826 120.493 6.32178 120.493 6.18701ZM120.633 4.11719L120.642 4.68848H119.82C119.589 4.68848 119.382 4.70752 119.201 4.74561C119.019 4.78076 118.867 4.83496 118.744 4.9082C118.621 4.98145 118.527 5.07373 118.462 5.18506C118.398 5.29346 118.366 5.4209 118.366 5.56738C118.366 5.7168 118.399 5.85303 118.467 5.97607C118.534 6.09912 118.635 6.19727 118.77 6.27051C118.908 6.34082 119.076 6.37598 119.275 6.37598C119.524 6.37598 119.744 6.32324 119.935 6.21777C120.125 6.1123 120.276 5.9834 120.387 5.83105C120.501 5.67871 120.563 5.53076 120.572 5.38721L120.919 5.77832C120.898 5.90137 120.843 6.0376 120.752 6.18701C120.661 6.33643 120.54 6.47998 120.387 6.61768C120.238 6.75244 120.059 6.86523 119.851 6.95605C119.646 7.04395 119.415 7.08789 119.157 7.08789C118.834 7.08789 118.552 7.0249 118.309 6.89893C118.068 6.77295 117.881 6.60449 117.746 6.39355C117.614 6.17969 117.548 5.94092 117.548 5.67725C117.548 5.42236 117.598 5.19824 117.698 5.00488C117.797 4.80859 117.941 4.646 118.128 4.51709C118.316 4.38525 118.542 4.28564 118.805 4.21826C119.069 4.15088 119.363 4.11719 119.688 4.11719H120.633ZM124.36 4.72803H123.485V4.22705H124.294C124.52 4.22705 124.698 4.19922 124.83 4.14355C124.962 4.08496 125.056 4.00439 125.111 3.90186C125.167 3.79932 125.195 3.6792 125.195 3.5415C125.195 3.41846 125.163 3.30273 125.098 3.19434C125.037 3.08301 124.937 2.99365 124.799 2.92627C124.662 2.85596 124.477 2.8208 124.246 2.8208C124.058 2.8208 123.888 2.85449 123.736 2.92188C123.583 2.98633 123.462 3.07568 123.371 3.18994C123.283 3.30127 123.239 3.42725 123.239 3.56787H122.426C122.426 3.27783 122.508 3.02881 122.672 2.8208C122.839 2.60986 123.061 2.44727 123.336 2.33301C123.614 2.21875 123.917 2.16162 124.246 2.16162C124.521 2.16162 124.767 2.19238 124.984 2.25391C125.204 2.3125 125.39 2.40039 125.542 2.51758C125.694 2.63184 125.81 2.77539 125.889 2.94824C125.971 3.11816 126.012 3.31592 126.012 3.5415C126.012 3.70264 125.974 3.85498 125.898 3.99854C125.822 4.14209 125.712 4.26953 125.568 4.38086C125.425 4.48926 125.25 4.57422 125.045 4.63574C124.843 4.69727 124.615 4.72803 124.36 4.72803ZM123.485 4.42041H124.36C124.644 4.42041 124.895 4.44824 125.111 4.50391C125.328 4.55664 125.51 4.63574 125.656 4.74121C125.803 4.84668 125.913 4.97705 125.986 5.13232C126.062 5.28467 126.1 5.46045 126.1 5.65967C126.1 5.88232 126.055 6.08301 125.964 6.26172C125.876 6.4375 125.75 6.58691 125.586 6.70996C125.422 6.83301 125.226 6.92676 124.997 6.99121C124.771 7.05566 124.521 7.08789 124.246 7.08789C123.938 7.08789 123.639 7.03516 123.349 6.92969C123.059 6.82422 122.82 6.66162 122.633 6.44189C122.445 6.21924 122.352 5.93652 122.352 5.59375H123.165C123.165 5.7373 123.21 5.87354 123.301 6.00244C123.392 6.13135 123.518 6.23535 123.679 6.31445C123.843 6.39355 124.032 6.43311 124.246 6.43311C124.474 6.43311 124.665 6.39795 124.817 6.32764C124.969 6.25732 125.083 6.16357 125.16 6.04639C125.239 5.9292 125.278 5.80176 125.278 5.66406C125.278 5.48535 125.243 5.3418 125.173 5.2334C125.103 5.125 124.994 5.0459 124.848 4.99609C124.704 4.94336 124.52 4.91699 124.294 4.91699H123.485V4.42041ZM127.968 3.15918V8.82812H127.15V2.24512H127.897L127.968 3.15918ZM131.171 4.58301V4.67529C131.171 5.021 131.13 5.3418 131.048 5.6377C130.966 5.93066 130.846 6.18555 130.688 6.40234C130.533 6.61914 130.341 6.7876 130.112 6.90771C129.884 7.02783 129.622 7.08789 129.326 7.08789C129.024 7.08789 128.757 7.03809 128.526 6.93848C128.294 6.83887 128.098 6.69385 127.937 6.50342C127.776 6.31299 127.647 6.08447 127.55 5.81787C127.457 5.55127 127.392 5.25098 127.357 4.91699V4.4248C127.392 4.07324 127.458 3.7583 127.555 3.47998C127.651 3.20166 127.779 2.96436 127.937 2.76807C128.098 2.56885 128.293 2.41797 128.521 2.31543C128.75 2.20996 129.014 2.15723 129.312 2.15723C129.611 2.15723 129.876 2.21582 130.108 2.33301C130.339 2.44727 130.534 2.61133 130.692 2.8252C130.851 3.03906 130.969 3.29541 131.048 3.59424C131.13 3.89014 131.171 4.21973 131.171 4.58301ZM130.354 4.67529V4.58301C130.354 4.3457 130.329 4.12305 130.279 3.91504C130.229 3.7041 130.152 3.51953 130.046 3.36133C129.944 3.2002 129.812 3.07422 129.651 2.9834C129.49 2.88965 129.298 2.84277 129.075 2.84277C128.87 2.84277 128.691 2.87793 128.539 2.94824C128.39 3.01855 128.262 3.11377 128.157 3.23389C128.051 3.35107 127.965 3.48584 127.897 3.63818C127.833 3.7876 127.785 3.94287 127.752 4.104V5.24219C127.811 5.44727 127.893 5.64062 127.999 5.82227C128.104 6.00098 128.245 6.146 128.42 6.25732C128.596 6.36572 128.817 6.41992 129.084 6.41992C129.304 6.41992 129.493 6.37451 129.651 6.28369C129.812 6.18994 129.944 6.0625 130.046 5.90137C130.152 5.74023 130.229 5.55566 130.279 5.34766C130.329 5.13672 130.354 4.9126 130.354 4.67529ZM135.012 6.18701V3.73926C135.012 3.55176 134.974 3.38916 134.898 3.25146C134.825 3.11084 134.713 3.00244 134.564 2.92627C134.415 2.8501 134.23 2.81201 134.01 2.81201C133.805 2.81201 133.625 2.84717 133.47 2.91748C133.317 2.98779 133.197 3.08008 133.109 3.19434C133.024 3.30859 132.982 3.43164 132.982 3.56348H132.169C132.169 3.39355 132.213 3.2251 132.301 3.05811C132.389 2.89111 132.515 2.74023 132.679 2.60547C132.846 2.46777 133.045 2.35938 133.276 2.28027C133.511 2.19824 133.771 2.15723 134.059 2.15723C134.404 2.15723 134.709 2.21582 134.973 2.33301C135.239 2.4502 135.447 2.62744 135.597 2.86475C135.749 3.09912 135.825 3.39355 135.825 3.74805V5.96289C135.825 6.12109 135.838 6.28955 135.865 6.46826C135.894 6.64697 135.937 6.80078 135.992 6.92969V7H135.144C135.103 6.90625 135.071 6.78174 135.047 6.62646C135.024 6.46826 135.012 6.32178 135.012 6.18701ZM135.153 4.11719L135.162 4.68848H134.34C134.108 4.68848 133.902 4.70752 133.72 4.74561C133.539 4.78076 133.386 4.83496 133.263 4.9082C133.14 4.98145 133.046 5.07373 132.982 5.18506C132.917 5.29346 132.885 5.4209 132.885 5.56738C132.885 5.7168 132.919 5.85303 132.986 5.97607C133.054 6.09912 133.155 6.19727 133.29 6.27051C133.427 6.34082 133.596 6.37598 133.795 6.37598C134.044 6.37598 134.264 6.32324 134.454 6.21777C134.645 6.1123 134.795 5.9834 134.907 5.83105C135.021 5.67871 135.083 5.53076 135.091 5.38721L135.438 5.77832C135.418 5.90137 135.362 6.0376 135.271 6.18701C135.181 6.33643 135.059 6.47998 134.907 6.61768C134.757 6.75244 134.579 6.86523 134.371 6.95605C134.166 7.04395 133.934 7.08789 133.676 7.08789C133.354 7.08789 133.071 7.0249 132.828 6.89893C132.588 6.77295 132.4 6.60449 132.266 6.39355C132.134 6.17969 132.068 5.94092 132.068 5.67725C132.068 5.42236 132.118 5.19824 132.217 5.00488C132.317 4.80859 132.46 4.646 132.648 4.51709C132.835 4.38525 133.061 4.28564 133.325 4.21826C133.588 4.15088 133.883 4.11719 134.208 4.11719H135.153ZM140.154 0.175293H140.822C140.822 0.462402 140.778 0.690918 140.69 0.86084C140.602 1.02783 140.482 1.15674 140.33 1.24756C140.18 1.33838 140.01 1.40723 139.82 1.4541C139.632 1.50098 139.438 1.54639 139.235 1.59033C138.983 1.64307 138.749 1.72656 138.532 1.84082C138.318 1.95215 138.134 2.11035 137.979 2.31543C137.826 2.52051 137.713 2.78711 137.64 3.11523C137.57 3.44336 137.551 3.84912 137.583 4.33252V4.73682H136.915V4.33252C136.915 3.79053 136.966 3.31738 137.069 2.91309C137.174 2.50879 137.322 2.16748 137.513 1.88916C137.703 1.61084 137.929 1.38965 138.189 1.22559C138.453 1.06152 138.743 0.94873 139.06 0.887207C139.288 0.843262 139.484 0.796387 139.648 0.746582C139.812 0.693848 139.937 0.623535 140.022 0.535645C140.11 0.447754 140.154 0.327637 140.154 0.175293ZM139.191 2.51758C139.502 2.51758 139.779 2.57178 140.022 2.68018C140.265 2.78857 140.472 2.93945 140.642 3.13281C140.812 3.32617 140.94 3.55469 141.028 3.81836C141.119 4.0791 141.165 4.36328 141.165 4.6709V4.76758C141.165 5.09863 141.116 5.40625 141.02 5.69043C140.926 5.97168 140.787 6.21777 140.602 6.42871C140.42 6.63672 140.198 6.79932 139.934 6.9165C139.673 7.03369 139.376 7.09229 139.042 7.09229C138.708 7.09229 138.409 7.03369 138.146 6.9165C137.885 6.79932 137.662 6.63672 137.478 6.42871C137.293 6.21777 137.152 5.97168 137.056 5.69043C136.962 5.40625 136.915 5.09863 136.915 4.76758V4.6709C136.915 4.59766 136.928 4.52588 136.955 4.45557C136.981 4.38525 137.013 4.31348 137.051 4.24023C137.092 4.16699 137.129 4.08936 137.161 4.00732C137.27 3.74365 137.417 3.49902 137.605 3.27344C137.795 3.04785 138.022 2.86621 138.286 2.72852C138.553 2.58789 138.854 2.51758 139.191 2.51758ZM139.033 3.18115C138.734 3.18115 138.488 3.25 138.295 3.3877C138.104 3.52539 137.962 3.7085 137.869 3.93701C137.775 4.1626 137.728 4.40723 137.728 4.6709V4.76758C137.728 4.99023 137.754 5.20117 137.807 5.40039C137.86 5.59961 137.939 5.77686 138.044 5.93213C138.153 6.08447 138.289 6.20459 138.453 6.29248C138.62 6.38037 138.816 6.42432 139.042 6.42432C139.268 6.42432 139.462 6.38037 139.626 6.29248C139.791 6.20459 139.925 6.08447 140.031 5.93213C140.136 5.77686 140.215 5.59961 140.268 5.40039C140.321 5.20117 140.347 4.99023 140.347 4.76758V4.6709C140.347 4.47168 140.321 4.28271 140.268 4.104C140.215 3.92529 140.135 3.76709 140.026 3.62939C139.921 3.4917 139.785 3.3833 139.618 3.3042C139.454 3.22217 139.259 3.18115 139.033 3.18115ZM141.872 4.67529V4.57422C141.872 4.23145 141.922 3.91357 142.021 3.62061C142.121 3.32471 142.265 3.06836 142.452 2.85156C142.64 2.63184 142.867 2.46191 143.133 2.3418C143.4 2.21875 143.699 2.15723 144.03 2.15723C144.364 2.15723 144.664 2.21875 144.931 2.3418C145.2 2.46191 145.429 2.63184 145.616 2.85156C145.807 3.06836 145.952 3.32471 146.051 3.62061C146.151 3.91357 146.201 4.23145 146.201 4.57422V4.67529C146.201 5.01807 146.151 5.33594 146.051 5.62891C145.952 5.92188 145.807 6.17822 145.616 6.39795C145.429 6.61475 145.202 6.78467 144.935 6.90771C144.671 7.02783 144.373 7.08789 144.039 7.08789C143.705 7.08789 143.404 7.02783 143.138 6.90771C142.871 6.78467 142.643 6.61475 142.452 6.39795C142.265 6.17822 142.121 5.92188 142.021 5.62891C141.922 5.33594 141.872 5.01807 141.872 4.67529ZM142.685 4.57422V4.67529C142.685 4.9126 142.713 5.13672 142.769 5.34766C142.824 5.55566 142.908 5.74023 143.019 5.90137C143.133 6.0625 143.275 6.18994 143.445 6.28369C143.615 6.37451 143.813 6.41992 144.039 6.41992C144.261 6.41992 144.456 6.37451 144.623 6.28369C144.793 6.18994 144.934 6.0625 145.045 5.90137C145.156 5.74023 145.24 5.55566 145.295 5.34766C145.354 5.13672 145.383 4.9126 145.383 4.67529V4.57422C145.383 4.33984 145.354 4.11865 145.295 3.91064C145.24 3.69971 145.155 3.51367 145.041 3.35254C144.929 3.18848 144.789 3.05957 144.619 2.96582C144.452 2.87207 144.255 2.8252 144.03 2.8252C143.807 2.8252 143.611 2.87207 143.441 2.96582C143.274 3.05957 143.133 3.18848 143.019 3.35254C142.908 3.51367 142.824 3.69971 142.769 3.91064C142.713 4.11865 142.685 4.33984 142.685 4.57422ZM149.062 2.24512V7H148.244V2.24512H149.062ZM150.657 2.24512V2.9043H146.68V2.24512H150.657ZM152.34 2.24512V7H151.527V2.24512H152.34ZM155.46 2.24512L153.206 4.96973H152.067L151.944 4.25781H152.876L154.471 2.24512H155.46ZM154.585 7L152.836 4.84668L153.359 4.25781L155.618 7H154.585ZM159.129 6.18701V3.73926C159.129 3.55176 159.091 3.38916 159.015 3.25146C158.942 3.11084 158.831 3.00244 158.681 2.92627C158.532 2.8501 158.347 2.81201 158.127 2.81201C157.922 2.81201 157.742 2.84717 157.587 2.91748C157.435 2.98779 157.314 3.08008 157.227 3.19434C157.142 3.30859 157.099 3.43164 157.099 3.56348H156.286C156.286 3.39355 156.33 3.2251 156.418 3.05811C156.506 2.89111 156.632 2.74023 156.796 2.60547C156.963 2.46777 157.162 2.35938 157.394 2.28027C157.628 2.19824 157.889 2.15723 158.176 2.15723C158.521 2.15723 158.826 2.21582 159.09 2.33301C159.356 2.4502 159.564 2.62744 159.714 2.86475C159.866 3.09912 159.942 3.39355 159.942 3.74805V5.96289C159.942 6.12109 159.956 6.28955 159.982 6.46826C160.011 6.64697 160.054 6.80078 160.109 6.92969V7H159.261C159.22 6.90625 159.188 6.78174 159.165 6.62646C159.141 6.46826 159.129 6.32178 159.129 6.18701ZM159.27 4.11719L159.279 4.68848H158.457C158.226 4.68848 158.019 4.70752 157.837 4.74561C157.656 4.78076 157.503 4.83496 157.38 4.9082C157.257 4.98145 157.164 5.07373 157.099 5.18506C157.035 5.29346 157.002 5.4209 157.002 5.56738C157.002 5.7168 157.036 5.85303 157.104 5.97607C157.171 6.09912 157.272 6.19727 157.407 6.27051C157.544 6.34082 157.713 6.37598 157.912 6.37598C158.161 6.37598 158.381 6.32324 158.571 6.21777C158.762 6.1123 158.913 5.9834 159.024 5.83105C159.138 5.67871 159.2 5.53076 159.208 5.38721L159.556 5.77832C159.535 5.90137 159.479 6.0376 159.389 6.18701C159.298 6.33643 159.176 6.47998 159.024 6.61768C158.875 6.75244 158.696 6.86523 158.488 6.95605C158.283 7.04395 158.051 7.08789 157.793 7.08789C157.471 7.08789 157.188 7.0249 156.945 6.89893C156.705 6.77295 156.518 6.60449 156.383 6.39355C156.251 6.17969 156.185 5.94092 156.185 5.67725C156.185 5.42236 156.235 5.19824 156.334 5.00488C156.434 4.80859 156.578 4.646 156.765 4.51709C156.953 4.38525 157.178 4.28564 157.442 4.21826C157.706 4.15088 158 4.11719 158.325 4.11719H159.27ZM114.538 14.4199C114.731 14.4199 114.91 14.3804 115.074 14.3013C115.238 14.2222 115.373 14.1138 115.479 13.9761C115.584 13.8354 115.644 13.6758 115.659 13.4971H116.432C116.417 13.7783 116.322 14.0405 116.146 14.2837C115.974 14.5239 115.747 14.7188 115.465 14.8682C115.184 15.0146 114.875 15.0879 114.538 15.0879C114.181 15.0879 113.869 15.0249 113.602 14.8989C113.338 14.7729 113.119 14.6001 112.943 14.3804C112.77 14.1606 112.64 13.9087 112.552 13.6245C112.467 13.3374 112.424 13.0342 112.424 12.7148V12.5303C112.424 12.2109 112.467 11.9092 112.552 11.625C112.64 11.3379 112.77 11.0845 112.943 10.8647C113.119 10.645 113.338 10.4722 113.602 10.3462C113.869 10.2202 114.181 10.1572 114.538 10.1572C114.91 10.1572 115.235 10.2334 115.514 10.3857C115.792 10.5352 116.01 10.7402 116.168 11.001C116.33 11.2588 116.417 11.5518 116.432 11.8799H115.659C115.644 11.6836 115.588 11.5063 115.492 11.3481C115.398 11.1899 115.269 11.064 115.105 10.9702C114.944 10.8735 114.755 10.8252 114.538 10.8252C114.289 10.8252 114.08 10.875 113.91 10.9746C113.743 11.0713 113.609 11.2031 113.51 11.3701C113.413 11.5342 113.343 11.7173 113.299 11.9194C113.258 12.1187 113.237 12.3223 113.237 12.5303V12.7148C113.237 12.9229 113.258 13.1279 113.299 13.3301C113.34 13.5322 113.409 13.7153 113.505 13.8794C113.605 14.0435 113.738 14.1753 113.905 14.2749C114.075 14.3716 114.286 14.4199 114.538 14.4199ZM120.15 14.187V11.7393C120.15 11.5518 120.112 11.3892 120.036 11.2515C119.962 11.1108 119.851 11.0024 119.702 10.9263C119.552 10.8501 119.368 10.812 119.148 10.812C118.943 10.812 118.763 10.8472 118.607 10.9175C118.455 10.9878 118.335 11.0801 118.247 11.1943C118.162 11.3086 118.12 11.4316 118.12 11.5635H117.307C117.307 11.3936 117.351 11.2251 117.438 11.0581C117.526 10.8911 117.652 10.7402 117.816 10.6055C117.983 10.4678 118.183 10.3594 118.414 10.2803C118.648 10.1982 118.909 10.1572 119.196 10.1572C119.542 10.1572 119.847 10.2158 120.11 10.333C120.377 10.4502 120.585 10.6274 120.734 10.8647C120.887 11.0991 120.963 11.3936 120.963 11.748V13.9629C120.963 14.1211 120.976 14.2896 121.002 14.4683C121.032 14.647 121.074 14.8008 121.13 14.9297V15H120.282C120.241 14.9062 120.208 14.7817 120.185 14.6265C120.162 14.4683 120.15 14.3218 120.15 14.187ZM120.291 12.1172L120.299 12.6885H119.478C119.246 12.6885 119.04 12.7075 118.858 12.7456C118.676 12.7808 118.524 12.835 118.401 12.9082C118.278 12.9814 118.184 13.0737 118.12 13.1851C118.055 13.2935 118.023 13.4209 118.023 13.5674C118.023 13.7168 118.057 13.853 118.124 13.9761C118.191 14.0991 118.292 14.1973 118.427 14.2705C118.565 14.3408 118.733 14.376 118.933 14.376C119.182 14.376 119.401 14.3232 119.592 14.2178C119.782 14.1123 119.933 13.9834 120.044 13.8311C120.159 13.6787 120.22 13.5308 120.229 13.3872L120.576 13.7783C120.556 13.9014 120.5 14.0376 120.409 14.187C120.318 14.3364 120.197 14.48 120.044 14.6177C119.895 14.7524 119.716 14.8652 119.508 14.9561C119.303 15.0439 119.072 15.0879 118.814 15.0879C118.492 15.0879 118.209 15.0249 117.966 14.8989C117.726 14.7729 117.538 14.6045 117.403 14.3936C117.271 14.1797 117.206 13.9409 117.206 13.6772C117.206 13.4224 117.255 13.1982 117.355 13.0049C117.455 12.8086 117.598 12.646 117.786 12.5171C117.973 12.3853 118.199 12.2856 118.462 12.2183C118.726 12.1509 119.021 12.1172 119.346 12.1172H120.291ZM123.121 13.7124L125.313 10.2451H126.131V15H125.313V11.5327L123.121 15H122.312V10.2451H123.121V13.7124ZM124.87 8.52246H125.529C125.529 8.75098 125.476 8.95459 125.371 9.1333C125.265 9.30908 125.114 9.44678 124.918 9.54639C124.722 9.646 124.489 9.6958 124.219 9.6958C123.812 9.6958 123.49 9.5874 123.252 9.37061C123.018 9.15088 122.901 8.86816 122.901 8.52246H123.56C123.56 8.69531 123.61 8.84766 123.709 8.97949C123.809 9.11133 123.979 9.17725 124.219 9.17725C124.454 9.17725 124.621 9.11133 124.72 8.97949C124.82 8.84766 124.87 8.69531 124.87 8.52246ZM129.374 10.2451V15H128.557V10.2451H129.374ZM130.969 10.2451V10.9043H126.992V10.2451H130.969ZM134.502 14.187V11.7393C134.502 11.5518 134.464 11.3892 134.388 11.2515C134.315 11.1108 134.204 11.0024 134.054 10.9263C133.905 10.8501 133.72 10.812 133.5 10.812C133.295 10.812 133.115 10.8472 132.96 10.9175C132.808 10.9878 132.688 11.0801 132.6 11.1943C132.515 11.3086 132.472 11.4316 132.472 11.5635H131.659C131.659 11.3936 131.703 11.2251 131.791 11.0581C131.879 10.8911 132.005 10.7402 132.169 10.6055C132.336 10.4678 132.535 10.3594 132.767 10.2803C133.001 10.1982 133.262 10.1572 133.549 10.1572C133.895 10.1572 134.199 10.2158 134.463 10.333C134.729 10.4502 134.938 10.6274 135.087 10.8647C135.239 11.0991 135.315 11.3936 135.315 11.748V13.9629C135.315 14.1211 135.329 14.2896 135.355 14.4683C135.384 14.647 135.427 14.8008 135.482 14.9297V15H134.634C134.593 14.9062 134.561 14.7817 134.538 14.6265C134.514 14.4683 134.502 14.3218 134.502 14.187ZM134.643 12.1172L134.652 12.6885H133.83C133.599 12.6885 133.392 12.7075 133.21 12.7456C133.029 12.7808 132.876 12.835 132.753 12.9082C132.63 12.9814 132.537 13.0737 132.472 13.1851C132.408 13.2935 132.375 13.4209 132.375 13.5674C132.375 13.7168 132.409 13.853 132.477 13.9761C132.544 14.0991 132.645 14.1973 132.78 14.2705C132.917 14.3408 133.086 14.376 133.285 14.376C133.534 14.376 133.754 14.3232 133.944 14.2178C134.135 14.1123 134.286 13.9834 134.397 13.8311C134.511 13.6787 134.573 13.5308 134.582 13.3872L134.929 13.7783C134.908 13.9014 134.853 14.0376 134.762 14.187C134.671 14.3364 134.549 14.48 134.397 14.6177C134.248 14.7524 134.069 14.8652 133.861 14.9561C133.656 15.0439 133.424 15.0879 133.167 15.0879C132.844 15.0879 132.562 15.0249 132.318 14.8989C132.078 14.7729 131.891 14.6045 131.756 14.3936C131.624 14.1797 131.558 13.9409 131.558 13.6772C131.558 13.4224 131.608 13.1982 131.708 13.0049C131.807 12.8086 131.951 12.646 132.138 12.5171C132.326 12.3853 132.551 12.2856 132.815 12.2183C133.079 12.1509 133.373 12.1172 133.698 12.1172H134.643Z" fill="white"/>
<rect x="103.133" y="2.57812" width="0.644594" height="12.8919" fill="white"/>
<path fill-rule="evenodd" clip-rule="evenodd" d="M12.5467 14.3384C12.5644 14.3582 12.5005 14.2787 12.4179 14.1817C12.3394 14.1379 12.2071 13.9758 12.1156 13.8634C12.0964 13.8397 12.0787 13.8182 12.0637 13.8004C12.0514 13.7854 12.0406 13.7731 12.0325 13.7645C11.6992 13.4144 11.3688 13.0614 11.0389 12.708C10.9858 12.6511 10.9331 12.5939 10.8805 12.5366L10.8209 12.4717L10.787 12.4351C10.5417 12.1718 10.2967 11.9085 10.0541 11.643C10.0625 11.6526 10.0518 11.6384 10.0298 11.6114L9.17346 10.6795C9.86234 10.5182 10.4655 10.1788 10.982 9.6618C11.7464 8.89729 12.1287 7.97719 12.1287 6.90035C12.1287 5.82409 11.7464 4.90345 10.982 4.13894C10.6047 3.77304 10.1825 3.49056 9.71413 3.29098C9.2456 3.09198 8.74777 2.99219 8.2201 2.99219H1.01766C0.737441 2.99219 0.497831 3.09478 0.298829 3.29886C0.0992123 3.50355 0 3.74597 0 4.02561C0 4.30579 0.0992123 4.54486 0.298829 4.74444C0.497831 4.94402 0.737441 5.04323 1.01766 5.04323H8.2201C8.47832 5.04323 8.71793 5.09172 8.93893 5.18871C9.15927 5.28569 9.35604 5.42043 9.52859 5.59236C9.7006 5.76491 9.83526 5.9611 9.93228 6.1821C10.0295 6.4031 10.0779 6.64217 10.0779 6.90093C10.0779 7.15969 10.0295 7.39876 9.93228 7.61976C9.83526 7.84075 9.7006 8.03414 9.52859 8.20103C9.35604 8.36793 9.15993 8.49983 8.93893 8.59681C8.71793 8.69379 8.47886 8.74228 8.2201 8.74228H1.01766C0.737441 8.74228 0.497831 8.84488 0.298829 9.04895C0.0992123 9.25361 0 9.49606 0 9.77571V13.4899C0 13.7809 0.0992123 14.0255 0.298829 14.2245C0.497831 14.4241 0.737441 14.5234 1.01766 14.5234C1.29726 14.5234 1.53972 14.4241 1.74433 14.2245C1.94849 14.0255 2.05112 13.7803 2.05112 13.4899V10.8091H6.47565L9.60865 14.2003C9.80254 14.4157 10.0552 14.5234 10.3675 14.5234H12.0149C12.2194 14.5234 12.4029 14.4681 12.5675 14.3616L12.5571 14.35L12.5467 14.3384ZM26.6245 6.54572C26.3553 5.84608 25.9461 5.22139 25.397 4.67226C24.8263 4.12313 24.1511 3.70594 23.3708 3.42065C22.5898 3.13539 21.7204 2.99273 20.7625 2.99273H19.9545C18.9967 2.99273 18.1276 3.13539 17.3473 3.42065C16.5663 3.70594 15.8911 4.12313 15.3204 4.67226C14.782 5.2107 14.3675 5.83482 14.0768 6.54572C13.9476 6.89024 13.8476 7.24821 13.778 7.61976C13.708 7.99073 13.673 8.37073 13.673 8.75805C13.673 9.52256 13.8076 10.2656 14.0768 10.9867C14.3675 11.7078 14.782 12.3268 15.3204 12.8438C15.8911 13.393 16.5663 13.8102 17.3473 14.0954C18.1276 14.3807 18.9967 14.5234 19.9545 14.5234H20.7625C21.7204 14.5234 22.5898 14.3807 23.3708 14.0954C24.1511 13.8102 24.8263 13.393 25.397 12.8438C25.9354 12.3161 26.3445 11.6971 26.6245 10.9867C26.9044 10.2758 27.0444 9.53325 27.0444 8.75805C27.0444 7.97212 26.9044 7.23467 26.6245 6.54572ZM24.6944 10.3C24.4956 10.7578 24.213 11.148 23.8473 11.471C23.4808 11.7941 23.0371 12.0421 22.5148 12.2141C21.9923 12.386 21.4081 12.4723 20.7625 12.4723H19.9545C19.2977 12.4723 18.7086 12.386 18.1868 12.2141C17.6646 12.0421 17.2204 11.7941 16.8544 11.471C16.4879 11.148 16.2083 10.7578 16.0145 10.3C15.8211 9.84277 15.7242 9.3286 15.7242 8.75805C15.7242 8.1875 15.8211 7.67332 16.0145 7.2161C16.2083 6.7583 16.4879 6.36814 16.8544 6.04509C17.2204 5.72203 17.6646 5.47454 18.1868 5.30203C18.7086 5.13006 19.2977 5.04381 19.9545 5.04381H20.7625C21.4081 5.04381 21.9923 5.13006 22.5148 5.30203C23.0371 5.47454 23.4808 5.72203 23.8473 6.04509C24.213 6.36814 24.4956 6.7583 24.6944 7.2161C24.894 7.67332 24.9932 8.1875 24.9932 8.75805C24.9932 9.3286 24.894 9.84277 24.6944 10.3ZM40.4992 7.68401C40.3273 8.08771 40.0901 8.44572 39.789 8.75805C40.0901 9.05968 40.3273 9.41204 40.4992 9.81574C40.6719 10.2194 40.758 10.653 40.758 11.1158V11.1322C40.758 11.6058 40.6688 12.0472 40.4915 12.4559C40.3139 12.8653 40.0712 13.2233 39.7647 13.53C39.4579 13.8367 39.0972 14.0791 38.6826 14.2567C38.2685 14.4343 37.8293 14.5234 37.3663 14.5234H30.5807H29.6474C29.3674 14.5234 29.1275 14.4236 28.9287 14.2245C28.7295 14.0255 28.6299 13.7803 28.6299 13.4899V8.75805C28.6299 8.46714 28.7295 8.22245 28.9287 8.02345C29.1052 7.84698 29.3124 7.74889 29.5528 7.72858C29.5839 7.72574 29.6155 7.72462 29.6474 7.72462H37.3663C37.732 7.72462 38.0451 7.59553 38.3035 7.33673C38.5615 7.07851 38.6907 6.76111 38.6907 6.38395C38.6907 6.01801 38.5615 5.70346 38.3035 5.43958C38.0451 5.17575 37.732 5.04381 37.3663 5.04381H29.6474C29.3674 5.04381 29.1275 4.9446 28.9287 4.74502C28.7295 4.54598 28.6299 4.30637 28.6299 4.02619C28.6299 3.74655 28.7295 3.50409 28.9287 3.29944C29.1275 3.09536 29.3674 2.99273 29.6474 2.99273H37.3663C37.8293 2.99273 38.2685 3.08183 38.6826 3.25941C39.0972 3.43699 39.4579 3.67887 39.7647 3.98616C40.0712 4.29283 40.3139 4.65365 40.4915 5.06804C40.6688 5.48242 40.758 5.92107 40.758 6.38395C40.758 6.84736 40.6719 7.28036 40.4992 7.68401ZM30.5807 9.77571V12.4723H37.3663C37.732 12.4723 38.0451 12.3432 38.3035 12.085C38.5615 11.8262 38.6907 11.5088 38.6907 11.1322V11.1158C38.6907 10.7392 38.5615 10.4212 38.3035 10.163C38.0451 9.9048 37.732 9.77571 37.3663 9.77571H30.5807ZM55.1631 6.54572C54.8939 5.84608 54.4847 5.22139 53.9356 4.67226C53.3649 4.12313 52.6897 3.70594 51.9087 3.42065C51.1284 3.13539 50.259 2.99273 49.3007 2.99273H48.4931C47.5349 2.99273 46.6662 3.13539 45.8852 3.42065C45.1045 3.70594 44.4289 4.12313 43.8582 4.67226C43.3199 5.2107 42.9057 5.83482 42.6154 6.54572C42.4862 6.89024 42.3862 7.24821 42.3162 7.61976C42.2466 7.99073 42.2116 8.37073 42.2116 8.75805C42.2116 9.52256 42.3458 10.2656 42.6154 10.9867C42.9057 11.7078 43.3199 12.3268 43.8582 12.8438C44.4289 13.393 45.1045 13.8102 45.8852 14.0954C46.6662 14.3807 47.5349 14.5234 48.4931 14.5234H49.3007C50.259 14.5234 51.1284 14.3807 51.9087 14.0954C52.6897 13.8102 53.3649 13.393 53.9356 12.8438C54.474 12.3161 54.8827 11.6971 55.1631 10.9867C55.4426 10.2758 55.583 9.53325 55.583 8.75805C55.583 7.97212 55.4426 7.23467 55.1631 6.54572ZM53.233 10.3C53.0342 10.7578 52.7508 11.148 52.3851 11.471C52.0194 11.7941 51.5749 12.0421 51.053 12.2141C50.5308 12.386 49.9467 12.4723 49.3007 12.4723H48.4931C47.8363 12.4723 47.2472 12.386 46.7254 12.2141C46.2028 12.0421 45.759 11.7941 45.3929 11.471C45.0265 11.148 44.7469 10.7578 44.5527 10.3C44.3589 9.84277 44.262 9.3286 44.262 8.75805C44.262 8.1875 44.3589 7.67332 44.5527 7.2161C44.7469 6.7583 45.0265 6.36814 45.3929 6.04509C45.759 5.72203 46.2028 5.47454 46.7254 5.30203C47.2472 5.13006 47.8363 5.04381 48.4931 5.04381H49.3007C49.9467 5.04381 50.5308 5.13006 51.053 5.30203C51.5749 5.47454 52.0194 5.72203 52.3851 6.04509C52.7508 6.36814 53.0342 6.7583 53.233 7.2161C53.4318 7.67332 53.5318 8.1875 53.5318 8.75805C53.5318 9.3286 53.4318 9.84277 53.233 10.3ZM68.4695 2.99273C68.7498 2.99273 68.9886 3.09536 69.1882 3.29944C69.3874 3.50409 69.487 3.74655 69.487 4.02619V13.4899C69.487 13.7053 69.4308 13.8964 69.3174 14.0628C69.2047 14.2302 69.0563 14.3565 68.8732 14.4427C68.7952 14.4726 68.719 14.4942 68.6444 14.5075C68.5848 14.5181 68.5268 14.5234 68.4695 14.5234C68.2007 14.5234 67.963 14.432 67.7592 14.2488L59.41 6.40029V13.4899C59.41 13.7803 59.31 14.0255 59.1112 14.2245C58.912 14.4236 58.6724 14.5234 58.3928 14.5234C58.1125 14.5234 57.8703 14.4236 57.6661 14.2245C57.4615 14.0255 57.3588 13.7803 57.3588 13.4899V4.02619C57.3588 3.82207 57.4157 3.63603 57.5284 3.46914C57.6418 3.30225 57.7953 3.17596 57.9887 3.08971C58.1717 3.00345 58.3629 2.97696 58.562 3.00911C58.7609 3.04122 58.9362 3.13255 59.0869 3.28363L67.4362 11.1158V4.02619C67.4362 3.74655 67.5354 3.50409 67.735 3.29944C67.9338 3.09536 68.1791 2.99273 68.4695 2.99273ZM95.3899 3.29944C95.1853 3.09536 94.9434 2.99273 94.6631 2.99273H72.7813C72.501 2.99273 72.2591 3.09536 72.0546 3.29944C71.85 3.50409 71.7477 3.74655 71.7477 4.02619C71.7477 4.30637 71.85 4.54598 72.0546 4.74502C72.2591 4.9446 72.501 5.04381 72.7813 5.04381H88.6073V13.4899C88.6073 13.7803 88.7065 14.0255 88.9061 14.2245C89.1053 14.4236 89.3448 14.5234 89.6252 14.5234C89.9155 14.5234 90.1601 14.4236 90.3596 14.2245C90.5588 14.0255 90.6584 13.7803 90.6584 13.4899V5.04381H94.6631C94.9434 5.04381 95.1853 4.9446 95.3899 4.74502C95.5945 4.54598 95.6971 4.30637 95.6971 4.02619C95.6971 3.74655 95.5945 3.50409 95.3899 3.29944ZM82.8583 12.4723H73.8146V9.79147H82.8583C83.1379 9.79147 83.3775 9.68945 83.5767 9.48476C83.7762 9.28011 83.8755 9.03826 83.8755 8.75805C83.8755 8.47841 83.7762 8.2388 83.5767 8.03922C83.3775 7.84022 83.1379 7.74043 82.8583 7.74043H72.7813C72.501 7.74043 72.2591 7.84022 72.0546 8.03922C71.85 8.2388 71.7477 8.47841 71.7477 8.75805V13.4899C71.7477 13.7803 71.85 14.0255 72.0546 14.2245C72.2591 14.4236 72.501 14.5234 72.7813 14.5234H82.8583C83.1379 14.5234 83.3775 14.4236 83.5767 14.2245C83.7762 14.0255 83.8755 13.7803 83.8755 13.4899C83.8755 13.2097 83.7762 12.9707 83.5767 12.7711C83.3775 12.5721 83.1379 12.4723 82.8583 12.4723Z" fill="white"/>
</svg>
